<?xml version="1.0" encoding="UTF-8" standalone="no"?>
<svg
   xmlns:dc="http://purl.org/dc/elements/1.1/"
   xmlns:cc="http://creativecommons.org/ns#"
   xmlns:rdf="http://www.w3.org/1999/02/22-rdf-syntax-ns#"
   xmlns:svg="http://www.w3.org/2000/svg"
   xmlns="http://www.w3.org/2000/svg"
   id="svg596"
   xml:space="preserve"
   enable-background="new 173 81.5 590 434"
   viewBox="173 81.5 590 434"
   height="434px"
   width="590px"
   y="0px"
   x="0px"
   version="1.1"><metadata
     id="metadata602"><rdf:RDF><cc:Work
         rdf:about=""><dc:format>image/svg+xml</dc:format><dc:type
           rdf:resource="http://purl.org/dc/dcmitype/StillImage" /><dc:title></dc:title></cc:Work></rdf:RDF></metadata><defs
     id="defs600" /><g
     id="box"><rect
       id="rect435"
       height="41.914"
       width="70"
       stroke="#000000"
       fill="#FFFFFF"
       pointer-events="none"
       y="96.621"
       x="181" /><rect
       id="rect437"
       height="41.914"
       width="93.85"
       stroke="#000000"
       fill="#FFFFFF"
       pointer-events="none"
       y="96.621"
       x="349.497" /><rect
       id="rect439"
       height="41.914"
       width="100.334"
       stroke="#000000"
       fill="#FFFFFF"
       pointer-events="none"
       y="96.621"
       x="482.5" /><rect
       id="rect441"
       height="41.914"
       width="104"
       stroke="#000000"
       fill="#FFFFFF"
       pointer-events="none"
       y="96.621"
       x="602.5" /><rect
       id="rect443"
       height="41.914"
       width="63.057"
       stroke="#000000"
       fill="#FFFFFF"
       pointer-events="none"
       y="96.621"
       x="269.679" /><rect
       id="rect445"
       height="43.158"
       width="120"
       stroke="#000000"
       fill="#FFFFFF"
       pointer-events="none"
       y="248.5"
       x="481.006" /><rect
       id="rect447"
       height="43.16"
       width="92.896"
       stroke="#000000"
       fill="#FFFFFF"
       pointer-events="none"
       y="348.937"
       x="267.911" /><rect
       id="rect449"
       height="42.998"
       width="134.5"
       stroke="#000000"
       fill="#FFFFFF"
       pointer-events="none"
       y="443.292"
       x="251.905" /><rect
       id="rect451"
       height="43.158"
       width="104"
       stroke="#000000"
       fill="#FFFFFF"
       pointer-events="none"
       y="301.495"
       x="641.5" /><rect
       id="rect453"
       height="43.158"
       width="120"
       stroke="#000000"
       fill="#FFFFFF"
       pointer-events="none"
       y="350.338"
       x="481.006" /><rect
       id="rect455"
       height="60"
       width="120"
       stroke="#000000"
       fill="#FFFFFF"
       pointer-events="none"
       y="448.5"
       x="481.006" /></g><g
     id="arrow"><g
       id="g464"
       pointer-events="none"><g
         id="g462"><line
           id="line458"
           y2="239.5"
           x2="506.61"
           y1="138.535"
           x1="393.334"
           stroke-miterlimit="10"
           stroke="#000000"
           fill="none" /><path
           id="path460"
           d="M511.115,243.515c-2.82-1.103-6.647-2.105-9.544-2.137l4.448-2.405l1.88-4.694     C508.262,237.153,509.696,240.84,511.115,243.515z" /></g></g><g
       id="g472"
       pointer-events="none"><g
         id="g470"><line
           id="line466"
           y2="238.963"
           x2="535.63"
           y1="138.5"
           x1="534.5"
           stroke-miterlimit="10"
           stroke="#000000"
           fill="none" /><path
           id="path468"
           d="M535.697,244.997c-1.085-2.828-2.923-6.331-4.851-8.493l4.774,1.666l4.735-1.773     C538.477,238.602,536.719,242.146,535.697,244.997z" /></g></g><g
       id="g480"
       pointer-events="none"><g
         id="g478"><line
           id="line474"
           y2="239.5"
           x2="563.667"
           y1="138.535"
           x1="657"
           stroke-miterlimit="10"
           stroke="#000000"
           fill="none" /><path
           id="path476"
           d="M559.57,243.931c1.154-2.801,2.226-6.608,2.311-9.504l2.324,4.491l4.658,1.965     C565.983,241.195,562.271,242.561,559.57,243.931z" /></g></g><g
       id="g488"
       pointer-events="none"><g
         id="g486"><line
           id="line482"
           y2="265.56"
           x2="475.849"
           y1="138.5"
           x1="301.5"
           stroke-miterlimit="10"
           stroke="#000000"
           fill="none" /><path
           id="path484"
           d="M480.726,269.115c-2.915-0.821-6.821-1.443-9.707-1.191l4.19-2.83l1.41-4.856     C477.263,263.063,479.052,266.591,480.726,269.115z" /></g></g><g
       id="g496"
       pointer-events="none"><g
         id="g494"><line
           id="line490"
           y2="342"
           x2="360.807"
           y1="284.5"
           x1="480"
           stroke-miterlimit="10"
           stroke="#000000"
           fill="none" /><path
           id="path492"
           d="M355.371,344.622c2.1-2.183,4.492-5.333,5.632-7.996l0.517,5.03l3.615,3.535     C362.342,344.426,358.386,344.337,355.371,344.622z" /></g></g><g
       id="g504"
       pointer-events="none"><g
         id="g502"><line
           id="line498"
           y2="342"
           x2="312.75"
           y1="138.5"
           x1="218.965"
           stroke-miterlimit="10"
           stroke="#000000"
           fill="none" /><path
           id="path500"
           d="M315.276,347.481c-2.146-2.139-5.253-4.586-7.896-5.772l5.038-0.429l3.599-3.552     C315.202,340.509,315.044,344.461,315.276,347.481z" /></g></g><g
       id="g512"
       pointer-events="none"><g
         id="g510"><line
           id="line506"
           y2="343.237"
           x2="541.006"
           y1="291.658"
           x1="541.006"
           stroke-miterlimit="10"
           stroke="#000000"
           fill="none" /><path
           id="path508"
           d="M541.006,349.272c-1.054-2.84-2.852-6.363-4.755-8.547l4.755,1.72l4.755-1.72     C543.857,342.909,542.058,346.432,541.006,349.272z" /></g></g><g
       id="g520"
       pointer-events="none"><g
         id="g518"><line
           id="line514"
           y2="371.916"
           x2="615.75"
           y1="344.653"
           x1="684.23"
           stroke-miterlimit="10"
           stroke="#000000"
           fill="none" /><path
           id="path516"
           d="M610.142,374.148c2.249-2.029,4.857-5.003,6.183-7.579l0.161,5.054l3.356,3.781     C617.109,374.444,613.171,374.076,610.142,374.148z" /></g></g><g
       id="g528"
       pointer-events="none"><g
         id="g526"><line
           id="line522"
           y2="442.131"
           x2="541.006"
           y1="393.496"
           x1="541.006"
           stroke-miterlimit="10"
           stroke="#000000"
           fill="none" /><path
           id="path524"
           d="M541.006,448.166c-1.054-2.84-2.852-6.363-4.755-8.547l4.755,1.72l4.755-1.72     C543.857,441.802,542.058,445.326,541.006,448.166z" /></g></g><g
       id="g536"
       pointer-events="none"><g
         id="g534"><line
           id="line530"
           y2="461.167"
           x2="471.333"
           y1="393.496"
           x1="318.993"
           stroke-miterlimit="10"
           stroke="#000000"
           fill="none" /><path
           id="path532"
           d="M476.848,463.617c-3.023-0.19-6.973,0.022-9.741,0.876l3.502-3.647l0.358-5.044     C472.19,458.427,474.68,461.502,476.848,463.617z" /></g></g><g
       id="g544"
       pointer-events="none"><g
         id="g542"><line
           id="line538"
           y2="477.013"
           x2="471.333"
           y1="475.877"
           x1="386.405"
           stroke-miterlimit="10"
           stroke="#000000"
           fill="none" /><path
           id="path540"
           d="M477.367,477.094c-2.854,1.016-6.4,2.766-8.609,4.64l1.783-4.731l-1.656-4.777     C471.043,474.158,474.542,476.003,477.367,477.094z" /></g></g></g><g
     id="text"><text
       id="text551"
       enable-background="new    "
       transform="matrix(1 0 0 1 191.1746 114.2458)"><tspan
         id="tspan547"
         font-size="10"
         font-family="'ArialMT'"
         y="0"
         x="0">1. Mark and </tspan><tspan
         id="tspan549"
         font-size="10"
         font-family="'ArialMT'"
         y="12"
         x="3.052">paint dome</tspan></text>
<text
       id="text557"
       enable-background="new    "
       transform="matrix(1 0 0 1 368.6418 114.2454)"><tspan
         id="tspan553"
         font-size="10"
         font-family="'ArialMT'"
         y="0"
         x="0">2, MOSFET </tspan><tspan
         id="tspan555"
         font-size="10"
         font-family="'ArialMT'"
         y="12"
         x="-0.84">Driver Shield</tspan></text>
<text
       id="text559"
       font-size="10"
       font-family="'ArialMT'"
       transform="matrix(1 0 0 1 491.7498 120.2449)">3. CAT4101 Board</text>
<text
       id="text565"
       enable-background="new    "
       transform="matrix(1 0 0 1 616.0388 114.2458)"><tspan
         id="tspan561"
         font-size="10"
         font-family="'ArialMT'"
         y="0"
         x="0">4, Power supply </tspan><tspan
         id="tspan563"
         font-size="10"
         font-family="'ArialMT'"
         y="12"
         x="10.277">connections</tspan></text>
<text
       id="text567"
       font-size="10"
       font-family="'ArialMT'"
       transform="matrix(1 0 0 1 283.4216 120.2449)">6. LEDs</text>
<text
       id="text569"
       font-size="10"
       font-family="'ArialMT'"
       transform="matrix(1 0 0 1 514.6111 273.9998)">Test system</text>
<text
       id="text575"
       enable-background="new    "
       transform="matrix(1 0 0 1 280.7336 367.1853)"><tspan
         id="tspan571"
         font-size="10"
         font-family="'ArialMT'"
         y="0"
         x="0">7. Install LEDs,</tspan><tspan
         id="tspan573"
         font-size="10"
         font-family="'ArialMT'"
         y="12"
         x="10.562">wire dome</tspan></text>
<text
       id="text581"
       enable-background="new    "
       transform="matrix(1 0 0 1 273.303 461.4587)"><tspan
         id="tspan577"
         font-size="10"
         font-family="'ArialMT'"
         y="0"
         x="0">Necessary hardware</tspan><tspan
         id="tspan579"
         font-size="10"
         font-family="'ArialMT'"
         y="12"
         x="-16.394">(stand, camera control, etc.)</tspan></text>
<text
       id="text583"
       font-size="10"
       font-family="'ArialMT'"
       transform="matrix(1 0 0 1 648.6365 325.7419)">5. Control box holes</text>
<text
       id="text585"
       font-size="10"
       font-family="'ArialMT'"
       transform="matrix(1 0 0 1 492.9294 374.5837)">Control box assembly</text>
<text
       id="text593"
       enable-background="new    "
       transform="matrix(1 0 0 1 491.5505 471.8328)"><tspan
         id="tspan587"
         font-size="10"
         font-family="'ArialMT'"
         y="0"
         x="0">Full system assemby, </tspan><tspan
         id="tspan589"
         font-size="10"
         font-family="'ArialMT'"
         y="12"
         x="14.438">test, calibration </tspan><tspan
         id="tspan591"
         font-size="10"
         font-family="'ArialMT'"
         y="24"
         x="18.874">and operation</tspan></text>
</g></svg>